<svg viewBox="0 0 40 40" fill="none" xmlns="http://www.w3.org/2000/svg">
    <path d="M20 7.5C18.3585 7.5 16.733 7.82332 15.2165 8.45151C13.6999 9.07969 12.3219 10.0004 11.1612 11.1612C8.81696 13.5054 7.5 16.6848 7.5 20C7.5 25.525 11.0875 30.2125 16.05 31.875C16.675 31.975 16.875 31.5875 16.875 31.25C16.875 30.9625 16.875 30.175 16.875 29.1375C13.4125 29.8875 12.675 27.4625 12.675 27.4625C12.1 26.0125 11.2875 25.625 11.2875 25.625C10.15 24.85 11.375 24.875 11.375 24.875C12.625 24.9625 13.2875 26.1625 13.2875 26.1625C14.375 28.0625 16.2125 27.5 16.925 27.2C17.0375 26.3875 17.3625 25.8375 17.7125 25.525C14.9375 25.2125 12.025 24.1375 12.025 19.375C12.025 17.9875 12.5 16.875 13.3125 15.9875C13.1875 15.675 12.75 14.375 13.4375 12.6875C13.4375 12.6875 14.4875 12.35 16.875 13.9625C17.8625 13.6875 18.9375 13.55 20 13.55C21.0625 13.55 22.1375 13.6875 23.125 13.9625C25.5125 12.35 26.5625 12.6875 26.5625 12.6875C27.25 14.375 26.8125 15.675 26.6875 15.9875C27.5 16.875 27.975 17.9875 27.975 19.375C27.975 24.15 25.05 25.2 22.2625 25.5125C22.7125 25.9 23.125 26.6625 23.125 27.825C23.125 29.5 23.125 30.85 23.125 31.25C23.125 31.5875 23.325 31.9875 23.9625 31.875C28.925 30.2 32.5 25.525 32.5 20C32.5 18.3585 32.1767 16.733 31.5485 15.2165C30.9203 13.6999 29.9996 12.3219 28.8388 11.1612C27.6781 10.0004 26.3001 9.07969 24.7835 8.45151C23.267 7.82332 21.6415 7.5 20 7.5V7.5Z" fill="#B8CFFF"/>
</svg>
