<svg viewBox="0 0 48 48" fill="none" xmlns="http://www.w3.org/2000/svg">
    <path d="M35.5432 20.1056C34.5631 20.1056 33.7006 20.5068 33.0668 21.1346C30.7343 19.536 27.5915 18.507 24.109 18.397L25.9188 10.3202L31.6817 11.6017C31.6817 12.9996 32.8316 14.1386 34.2429 14.1386C35.6804 14.1386 36.8369 12.9672 36.8369 11.5693C36.8369 10.1714 35.6869 9 34.2429 9C33.2367 9 32.3677 9.60187 31.9365 10.4238L25.5725 9.02589C25.2524 8.94175 24.9388 9.16827 24.8538 9.48538L22.8675 18.3905C19.4111 18.5329 16.301 19.5619 13.9619 21.1605C13.3282 20.5068 12.433 20.1056 11.4529 20.1056C7.82014 20.1056 6.63098 24.9335 9.9567 26.5838C9.83909 27.0951 9.78682 27.6387 9.78682 28.1823C9.78682 33.6057 15.9548 38 23.5275 38C31.1328 38 37.3008 33.6057 37.3008 28.1823C37.3008 27.6387 37.242 27.0692 37.0982 26.5579C40.3586 24.9011 39.1564 20.1056 35.5432 20.1056V20.1056ZM15.2295 26.9268C15.2295 25.503 16.3795 24.3575 17.8234 24.3575C19.2347 24.3575 20.3847 25.4965 20.3847 26.9268C20.3847 28.3247 19.2347 29.4637 17.8234 29.4637C16.386 29.4702 15.2295 28.3247 15.2295 26.9268V26.9268ZM29.2315 32.9779C26.8532 35.3336 20.1429 35.3336 17.7646 32.9779C17.5033 32.7514 17.5033 32.3501 17.7646 32.0913C17.9933 31.8648 18.3984 31.8648 18.6271 32.0913C20.4435 33.9357 26.4677 33.9681 28.3625 32.0913C28.5912 31.8648 28.9963 31.8648 29.225 32.0913C29.4928 32.3501 29.4928 32.7514 29.2315 32.9779ZM29.1792 29.4702C27.7679 29.4702 26.618 28.3312 26.618 26.9333C26.618 25.5095 27.7679 24.364 29.1792 24.364C30.6167 24.364 31.7731 25.503 31.7731 26.9333C31.7666 28.3247 30.6167 29.4702 29.1792 29.4702Z" fill="#371D70"/>
</svg>
