<svg viewBox="0 0 48 48" fill="none" xmlns="http://www.w3.org/2000/svg">
    <path fill-rule="evenodd" clip-rule="evenodd" d="M10.8645 23.7465C17.8645 20.6985 22.53 18.689 24.861 17.718C31.5255 14.946 32.9115 14.4645 33.813 14.448C34.1446 14.4409 34.47 14.5385 34.743 14.727C34.9343 14.893 35.0564 15.1248 35.085 15.3765C35.1337 15.689 35.1473 16.006 35.1255 16.3215C34.764 20.1165 33.201 29.3265 32.406 33.5715C32.07 35.3715 31.407 35.9715 30.7665 36.0315C29.373 36.1605 28.314 35.1105 26.964 34.2315C24.852 32.847 23.664 31.9815 21.6075 30.6315C19.2375 29.07 20.7735 28.212 22.125 26.8095C22.479 26.442 28.6185 20.8575 28.7385 20.3505C28.7542 20.276 28.7524 20.1988 28.7331 20.1251C28.7138 20.0514 28.6777 19.9833 28.6275 19.926C28.5542 19.8797 28.4712 19.8512 28.3849 19.8429C28.2987 19.8345 28.2117 19.8466 28.131 19.878C27.918 19.926 24.541 22.157 18 26.571C17.2535 27.1542 16.3438 27.4903 15.3975 27.5325C14.1248 27.3785 12.8735 27.0821 11.667 26.649C10.167 26.16 8.96697 25.899 9.07347 25.0725C9.13047 24.6405 9.72747 24.1985 10.8645 23.7465Z" fill="#371D70"/>
</svg>
