<svg viewBox="0 0 40 40" fill="none" xmlns="http://www.w3.org/2000/svg">
    <path fill-rule="evenodd" clip-rule="evenodd" d="M26.5 31.5H13.5C12.3955 31.5 11.5 30.6045 11.5 29.5V10.5C11.5 9.3955 12.3955 8.5 13.5 8.5H22.9865C22.9875 8.5 22.989 8.5 22.99 8.5H23C23.16 8.5 23.2965 8.5805 23.388 8.6975L28.3025 13.612C28.42 13.7035 28.5 13.84 28.5 14V14.0105C28.5 14.0115 28.5 14.012 28.5 14.013V29.5C28.5 30.6045 27.6045 31.5 26.5 31.5ZM23.5 10.1905V13.5H26.8095L23.5 10.1905ZM27.5 14.5H23C22.7235 14.5 22.5 14.276 22.5 14V9.5H13.5C12.948 9.5 12.5 9.948 12.5 10.5V29.5C12.5 30.052 12.948 30.5 13.5 30.5H26.5C27.052 30.5 27.5 30.052 27.5 29.5V14.5ZM24.5 27.5H15.5C15.2235 27.5 15 27.2765 15 27C15 26.724 15.2235 26.5 15.5 26.5H24.5C24.7765 26.5 25 26.724 25 27C25 27.2765 24.7765 27.5 24.5 27.5ZM24.5 23.5H15.5C15.2235 23.5 15 23.2765 15 23C15 22.724 15.2235 22.5 15.5 22.5H24.5C24.7765 22.5 25 22.724 25 23C25 23.2765 24.7765 23.5 24.5 23.5ZM24.5 19.5H15.5C15.2235 19.5 15 19.2765 15 19C15 18.724 15.2235 18.5 15.5 18.5H24.5C24.7765 18.5 25 18.724 25 19C25 19.2765 24.7765 19.5 24.5 19.5Z" fill="#B8CFFF"/>
</svg>
