<svg viewBox="0 0 24 24" fill="none" xmlns="http://www.w3.org/2000/svg">
    <path d="M6 15C4.82759 15 4 14.2635 4 12.4995C4 10.9507 4.66976 10 6 10" fill="#D9F7FE"/>
    <path opacity="0.15" d="M6 15V13.2495C5.2053 13.095 4.50066 12.5089 4.01324 12C4.0053 12.1204 4 12.2442 4 12.3714C4.00265 14.2264 4.82914 15 6 15Z" fill="#000275"/>
    <path d="M5.74641 14.9994C5.49619 15.0066 5.24804 14.9523 5.02447 14.8416C4.80079 14.731 4.60872 14.5673 4.46558 14.3654C4.15651 13.9389 4 13.3118 4 12.4997C4 10.9115 4.63596 10 5.74641 10C5.81367 10 5.87816 10.0263 5.92571 10.073C5.97325 10.1198 6 10.1831 6 10.2493C6 10.3154 5.97325 10.3788 5.92571 10.4255C5.87816 10.4723 5.81367 10.4986 5.74641 10.4986C5.18078 10.4986 4.50619 10.8452 4.50619 12.4997C4.50619 13.4131 4.72115 14.5018 5.74641 14.5018C5.8108 14.5057 5.87122 14.5337 5.9154 14.5799C5.95958 14.6261 5.98415 14.6872 5.98415 14.7506C5.98415 14.814 5.95958 14.875 5.9154 14.9213C5.87122 14.9674 5.8108 14.9954 5.74641 14.9994V14.9994Z" fill="#04007B"/>
    <path opacity="0.5" d="M18 11.5C18 16.1443 15.3401 18 11.9599 18C8.57974 18 6 16.0872 6 11.5C6 7.47221 8.57593 5 11.958 5C15.3401 5 18 7.69677 18 11.5Z" fill="white"/>
    <path d="M17.5121 9.26986C17.5121 9.26986 18.76 12.8294 17.2643 15.4974L16 16C16 16 17.9505 12.0439 16.7002 9L17.5121 9.26986Z" fill="#16369D"/>
    <path opacity="0.5" d="M7.42521 17L7.12336 17.3494C7.03522 17.4502 6.99135 17.5812 7.00142 17.7136C7.01138 17.8461 7.07436 17.9693 7.17669 18.0562C8.6807 19.3102 10.5899 19.9991 12.5637 19.9999C14.4906 20.0075 16.3566 19.3381 17.8239 18.1125C17.8786 18.0659 17.9227 18.0084 17.9531 17.9437C17.9834 17.8792 17.9994 17.8089 18 17.7378C18.0006 17.6666 17.9857 17.5961 17.9564 17.5311C17.927 17.466 17.884 17.4078 17.8299 17.3603L17.4275 17" fill="#E0F7FC"/>
    <path d="M16.7073 16.7664H16.4506C17.4171 15.6744 18 14.0449 18 11.7778C18 7.81202 15.3401 5 11.9599 5C8.57974 5 6 7.5768 6 11.7767C6 14.0321 6.57243 15.6669 7.53411 16.7654H7.22786L6.94164 17.1421C6.85807 17.2508 6.81647 17.3921 6.82601 17.5348C6.83546 17.6776 6.89518 17.8105 6.99221 17.9042C8.41832 19.2563 10.2286 19.9991 12.1002 19.9999C13.9273 20.0081 15.6966 19.2863 17.0879 17.9649C17.1398 17.9146 17.1816 17.8526 17.2104 17.7829C17.2391 17.7133 17.2543 17.6375 17.2549 17.5609C17.2555 17.4841 17.2413 17.4081 17.2136 17.338C17.1857 17.2678 17.1449 17.205 17.0937 17.1539L16.7073 16.7664V16.7664Z" fill="#D9F8F5"/>
    <path d="M16.7073 16.7664H16.4506C17.4171 15.6744 18 14.0449 18 11.7778C18 7.81202 15.3401 5 11.9599 5C8.57974 5 6 7.5768 6 11.7767C6 14.0321 6.57243 15.6669 7.53411 16.7654H7.22786L6.94164 17.1421C6.85807 17.2508 6.81647 17.3921 6.82601 17.5348C6.83546 17.6776 6.89518 17.8105 6.99221 17.9042C8.41832 19.2563 10.2286 19.9991 12.1002 19.9999C13.9273 20.0081 15.6966 19.2863 17.0879 17.9649C17.1398 17.9146 17.1816 17.8526 17.2104 17.7829C17.2391 17.7133 17.2543 17.6375 17.2549 17.5609C17.2555 17.4841 17.2413 17.4081 17.2136 17.338C17.1857 17.2678 17.1449 17.205 17.0937 17.1539L16.7073 16.7664V16.7664Z" fill="#D9F8F5"/>
    <path opacity="0.15" d="M8.16738 16C7.16558 13.8248 6.946 11.3353 7.54988 9L6 9.79621L6.28369 15.0238L8.16738 16V16ZM15.8345 16C16.8363 13.8248 17.0559 11.3353 16.452 9L18 9.80425L17.721 15.0319L15.8345 16V16Z" fill="#000275"/>
    <path opacity="0.5" d="M8.60057 11.5C8.60057 7.79149 10.8737 5.40308 13.978 5.04766C13.7173 5.01658 13.4552 5.00062 13.1927 5C9.68026 5 7 7.47338 7 11.5C7 16.0862 9.68026 18 13.1927 18C13.4671 18 13.7356 17.9876 14 17.9637C10.8847 17.6881 8.60057 15.7339 8.60057 11.5V11.5Z" fill="white"/>
    <path opacity="0.3" d="M14.9583 16.0288C14.9583 16.0288 14.2011 17.6297 12 18.0399C12 18.0399 14.2299 18.7661 13.1925 20L18 17.9157C18 17.9157 17.6246 17.0621 16.6877 17.1397C16.6877 17.1397 15.0513 18.3914 13.5551 18.3514C13.5551 18.3514 17.0845 16.9834 17.5733 15L14.9583 16.0288Z" fill="#000275"/>
    <path d="M16.5813 8.31848C15.1578 7.45253 13.5742 7 11.9665 7C10.3588 7 8.77519 7.45253 7.35169 8.31848C6.71621 10.9981 6.94728 13.8546 8.0015 16.3505C10.7218 17.3287 13.6488 17.1988 16.2967 15.9825C17.1244 13.5356 17.2245 10.8387 16.5813 8.31848Z" fill="#1A43A4"/>
    <path opacity="0.3" d="M7 8.8831C7 8.8831 11.2887 6.40328 14.8987 8.26432C18.5087 10.1254 13.6827 17.0653 8.33499 16.6296C8.33499 16.6296 14.0087 17.8105 17.1537 15.9553C17.1537 15.9553 18.7602 11.5719 17.5464 8.54419C17.5464 8.54419 15.3559 6.95946 12.4968 7.00079C10.7088 7.04827 8.94831 7.4781 7.3204 8.26432L7 8.8831Z" fill="#000275"/>
    <path d="M12.5612 19.9999C10.6172 19.9946 8.7377 19.3869 7.25331 18.2836C7.10689 18.1714 7.01671 18.0132 7.00209 17.843C6.98748 17.6728 7.04978 17.5044 7.17543 17.3743L7.46385 17.076C7.48471 17.0544 7.51029 17.0366 7.53894 17.0238C7.56768 17.0108 7.59902 17.003 7.63113 17.0007C7.66325 16.9984 7.69555 17.0018 7.72631 17.0105C7.75698 17.0192 7.78544 17.0331 7.80995 17.0515C7.83447 17.0698 7.85475 17.0923 7.86937 17.1175C7.88408 17.1427 7.89302 17.1703 7.89561 17.1985C7.89821 17.2267 7.89436 17.2552 7.88446 17.2822C7.87456 17.3091 7.8587 17.3342 7.83783 17.3557L7.54942 17.6549C7.5074 17.6979 7.48654 17.7537 7.49116 17.8103C7.49596 17.8667 7.52577 17.9194 7.57441 17.9565C8.96901 18.993 10.7349 19.5637 12.5612 19.5681C14.3438 19.5779 16.0707 19.0228 17.4258 18.0047C17.4523 17.9853 17.4734 17.9609 17.4878 17.9335C17.5023 17.906 17.5098 17.8761 17.5095 17.8458C17.51 17.8152 17.5031 17.785 17.4892 17.757C17.4752 17.729 17.4547 17.704 17.4287 17.6836L17.0441 17.376C17.0202 17.357 17.0008 17.3341 16.9869 17.3085C16.9731 17.2829 16.9651 17.2552 16.9635 17.2269C16.9619 17.1986 16.9666 17.1703 16.9773 17.1436C16.9881 17.1169 17.0047 17.0924 17.0264 17.0713C17.048 17.0503 17.074 17.0332 17.1032 17.0211C17.1322 17.0089 17.1637 17.0019 17.196 17.0004C17.2282 16.999 17.2604 17.0031 17.2907 17.0126C17.3211 17.0221 17.349 17.0367 17.3729 17.0557L17.7575 17.3633C17.8347 17.4247 17.8962 17.4998 17.9381 17.5836C17.9799 17.6674 18.0009 17.7581 18 17.8496C17.9989 17.9412 17.9758 18.0314 17.9323 18.1146C17.8886 18.1976 17.8255 18.2717 17.7469 18.3317C16.3022 19.4171 14.4616 20.0092 12.5612 19.9999V19.9999Z" fill="#04007B"/>
    <path d="M18 10C19.3271 10 20 10.9518 20 12.5005C20 14.2645 19.1719 15 18 15" fill="#D9F7FE"/>
    <path opacity="0.15" d="M19.9994 12.2971C20.0066 11.8599 19.9486 11.4239 19.8269 11C19.551 11.6503 18.9911 12.5778 18 12.7333V15C19.1715 15 19.9994 14.2047 19.9994 12.2971V12.2971Z" fill="#000275"/>
    <path d="M18.2675 14.9993C18.2331 15.0019 18.1987 14.996 18.1664 14.9823C18.134 14.9684 18.1044 14.9467 18.0794 14.9188C18.0543 14.8908 18.0343 14.857 18.0206 14.8195C18.0071 14.7821 18 14.7417 18 14.7008C18 14.6599 18.0071 14.6195 18.0206 14.5821C18.0343 14.5446 18.0543 14.5108 18.0794 14.4828C18.1044 14.4547 18.134 14.4332 18.1664 14.4194C18.1987 14.4055 18.2331 14.3997 18.2675 14.4022C19.2842 14.4022 19.4975 13.0959 19.4975 12C19.4975 10.0136 18.8289 9.59766 18.2675 9.59766C18.2331 9.60023 18.1987 9.59439 18.1664 9.5806C18.134 9.56669 18.1044 9.54508 18.0794 9.51715C18.0543 9.48911 18.0343 9.45534 18.0206 9.41784C18.0071 9.38045 18 9.34002 18 9.29912C18 9.25823 18.0071 9.2178 18.0206 9.18041C18.0343 9.1429 18.0543 9.10914 18.0794 9.0811C18.1044 9.05305 18.134 9.03155 18.1664 9.01777C18.1987 9.00386 18.2331 8.99802 18.2675 9.00059C19.3687 9.00059 20 10.0931 20 12C20 12.9733 19.8446 13.7269 19.5388 14.2375C19.3967 14.4797 19.206 14.6762 18.9841 14.8092C18.7621 14.9422 18.5159 15.0075 18.2675 14.9993V14.9993Z" fill="#04007B"/>
    <path d="M11.9535 18C7.53427 18 5 15.6312 5 11.5C5 9.56884 5.69214 7.92421 7.00153 6.74472C8.24994 5.61919 10.0086 5 11.9545 5C15.9715 5 19 7.79469 19 11.5C18.9989 15.6312 16.4315 18 11.9535 18ZM11.9535 5.50143C10.152 5.50143 8.53022 6.0696 7.38343 7.1019C6.18102 8.18131 5.54558 9.70622 5.54558 11.5C5.54558 13.5214 6.16176 15.067 7.37702 16.0944C8.46497 17.0128 10.0514 17.4986 11.9535 17.4986C14.3808 17.4986 18.4523 16.7194 18.4523 11.5C18.4523 9.81711 17.7837 8.28336 16.5684 7.18237C15.3735 6.09903 13.7336 5.50242 11.9535 5.50242V5.50143V5.50143Z" fill="#04007B"/>
    <path opacity="0.3" d="M12 6.05128C12 6.05128 14.4007 6.42218 15.1736 8.09995L18 9C18 9 16.0239 5.54154 12 6.05128Z" fill="#000275"/>
    <path d="M6.24714 9.66717C6.19515 9.66685 6.14462 9.64822 6.10255 9.61403C6.06057 9.57972 6.02909 9.53158 6.01267 9.47637C5.99635 9.42115 5.99576 9.36147 6.01112 9.30582C6.02656 9.25027 6.05708 9.20137 6.09847 9.16619C7.81018 7.76781 9.8717 7.0098 11.9898 7H12.0005C14.1233 7.00653 16.19 7.76465 17.9054 9.16619C17.9558 9.21063 17.9888 9.27521 17.9977 9.34644C18.0064 9.41766 17.9903 9.48987 17.9525 9.54792C17.9148 9.60608 17.8584 9.6455 17.7953 9.65792C17.7321 9.67044 17.6671 9.65509 17.6139 9.6149C15.9841 8.28371 14.021 7.56338 12.0043 7.55652H11.9937C9.97936 7.56426 8.01851 8.28382 6.38997 9.61272C6.34877 9.64757 6.29864 9.66652 6.24714 9.66717ZM11.6613 17C9.83128 16.9931 8.02628 16.523 6.38123 15.6245C6.32565 15.5899 6.28406 15.5327 6.26492 15.4648C6.24568 15.3969 6.25054 15.3232 6.27823 15.2591C6.30592 15.1951 6.35451 15.1453 6.41397 15.12C6.47344 15.0948 6.53932 15.0961 6.59791 15.1235C8.32663 16.0805 10.2437 16.5304 12.1697 16.4312C14.0958 16.332 15.9678 15.6868 17.6109 14.5561C17.6387 14.537 17.6696 14.5244 17.7019 14.5187C17.7341 14.5131 17.7669 14.5146 17.7986 14.5231C17.8303 14.5318 17.8601 14.5473 17.8864 14.5688C17.9128 14.5904 17.935 14.6175 17.952 14.6487C17.969 14.6798 17.9803 14.7144 17.9853 14.7505C17.9904 14.7866 17.989 14.8235 17.9814 14.859C17.9737 14.8945 17.9599 14.9279 17.9406 14.9574C17.9214 14.9868 17.8972 15.0119 17.8694 15.0309C16.4013 16.0353 14.7583 16.6756 13.0508 16.9085C12.5897 16.9694 12.1257 17 11.6613 17V17Z" fill="#04007B"/>
    <path d="M8.28059 17C8.23859 17 8.19763 16.9865 8.16193 16.9609C8.12623 16.9354 8.09757 16.8988 8.07898 16.8552C6.94338 14.1655 6.69431 11.0879 7.37861 8.20061C7.38544 8.16667 7.39804 8.13467 7.41568 8.10656C7.43342 8.07845 7.45579 8.05473 7.48162 8.03684C7.50735 8.01895 7.53601 8.00727 7.56573 8.00241C7.59555 7.99766 7.62579 7.99997 7.65477 8.00898C7.68386 8.01798 7.71095 8.0338 7.73457 8.05521C7.7582 8.07675 7.77783 8.10352 7.79232 8.13406C7.80692 8.16448 7.81595 8.19818 7.819 8.23273C7.82204 8.26741 7.819 8.30233 7.81017 8.33567C7.15391 11.102 7.39247 14.0509 8.48114 16.6277C8.49406 16.6583 8.50162 16.6916 8.5034 16.7256C8.50508 16.7597 8.50099 16.7938 8.49122 16.826C8.48146 16.8581 8.46623 16.8877 8.44649 16.913C8.42665 16.9383 8.40281 16.9588 8.37614 16.9732C8.34642 16.9904 8.31377 16.9996 8.28059 17V17ZM17.0368 16.5121C17.0087 16.512 16.9809 16.5058 16.9549 16.4938C16.9276 16.4813 16.9027 16.4628 16.8817 16.4391C16.8606 16.4155 16.8438 16.3873 16.8321 16.356C16.8206 16.3248 16.8144 16.2913 16.8139 16.2573C16.8136 16.2232 16.819 16.1895 16.8299 16.158C17.6817 13.6648 17.7839 10.9117 17.1197 8.34297C17.1104 8.31012 17.1069 8.27532 17.1093 8.24076C17.1117 8.20633 17.1201 8.17275 17.134 8.14221C17.1479 8.11143 17.1669 8.08429 17.1899 8.06227C17.213 8.04025 17.2395 8.0237 17.2682 8.01384C17.2968 8.00399 17.3268 8.0007 17.3565 8.00448C17.3862 8.00825 17.415 8.01883 17.441 8.03575C17.4672 8.05254 17.4901 8.07529 17.5084 8.10267C17.5268 8.1298 17.5404 8.16107 17.5481 8.19453C18.2414 10.874 18.1345 13.7462 17.2447 16.3466C17.2284 16.3953 17.1998 16.437 17.1628 16.4666C17.1257 16.496 17.0818 16.512 17.0368 16.5121V16.5121Z" fill="#04007B"/>
    <path d="M7.35519 12.1216H6.16151C6.1216 12.1184 6.08437 12.1 6.05718 12.07C6.02998 12.04 6.01494 12.0006 6.01494 11.9596C6.01494 11.9188 6.02998 11.8793 6.05718 11.8493C6.08437 11.8193 6.1216 11.8009 6.16151 11.7977H7.35519C7.39696 11.7977 7.43715 11.8148 7.46676 11.845C7.49637 11.8753 7.51298 11.9163 7.51298 11.9592C7.5127 12.002 7.49609 12.043 7.46657 12.0734C7.43706 12.1038 7.39705 12.1211 7.35519 12.1216V12.1216ZM6.1578 12.9573C6.11603 12.9573 6.07583 12.9402 6.04622 12.91C6.01662 12.8797 6 12.8387 6 12.7958C6 12.7531 6.01671 12.712 6.04622 12.6817C6.07583 12.6514 6.11593 12.6344 6.1578 12.6344L7.40995 12.6078C7.43084 12.607 7.45163 12.6106 7.47121 12.6182C7.49071 12.6258 7.50844 12.6373 7.52347 12.6521C7.5386 12.667 7.55058 12.6846 7.55874 12.7043C7.5671 12.7239 7.57137 12.745 7.57146 12.7664C7.5722 12.8093 7.55633 12.8507 7.52728 12.8817C7.49823 12.9127 7.4584 12.9306 7.41645 12.9316L6.16429 12.9573H6.1578V12.9573ZM17.8291 12.1206H16.6781C16.6382 12.1175 16.601 12.0991 16.5738 12.069C16.5466 12.039 16.5316 11.9996 16.5316 11.9587C16.5316 11.9179 16.5466 11.8783 16.5738 11.8483C16.601 11.8183 16.6382 11.7999 16.6781 11.7968H17.8291C17.8509 11.7951 17.8728 11.798 17.8934 11.8053C17.9141 11.8127 17.9331 11.8243 17.9491 11.8395C17.9651 11.8547 17.9779 11.8732 17.9867 11.8936C17.9955 11.9141 18 11.9364 18 11.9587C18 11.9811 17.9955 12.0032 17.9867 12.0236C17.9779 12.0442 17.9651 12.0626 17.9491 12.0778C17.9331 12.093 17.9141 12.1047 17.8934 12.112C17.8728 12.1194 17.8509 12.1223 17.8291 12.1206V12.1206ZM16.6401 13C16.6002 12.9969 16.5629 12.9784 16.5357 12.9484C16.5086 12.9184 16.4935 12.879 16.4935 12.8381C16.4935 12.7972 16.5086 12.7577 16.5357 12.7277C16.5629 12.6977 16.6002 12.6793 16.6401 12.6762H17.8096C17.8495 12.6793 17.8868 12.6977 17.914 12.7277C17.9412 12.7577 17.9562 12.7972 17.9562 12.8381C17.9562 12.879 17.9412 12.9184 17.914 12.9484C17.8868 12.9784 17.8495 12.9969 17.8096 13H16.6401ZM12.8075 7.34473L11.2295 7.32289C11.1877 7.32289 11.1476 7.30589 11.118 7.27559C11.0884 7.2453 11.0717 7.20427 11.0717 7.16144C11.0717 7.11871 11.0884 7.07759 11.118 7.04729C11.1476 7.017 11.1877 7 11.2295 7L12.8075 7.02089C12.8474 7.02403 12.8846 7.04245 12.9118 7.07246C12.939 7.10247 12.9541 7.14188 12.9541 7.18281C12.9541 7.22374 12.939 7.26315 12.9118 7.29316C12.8846 7.32317 12.8474 7.3416 12.8075 7.34473V7.34473Z" fill="#04007B"/>
    <path d="M10.4778 11.7371C11.3378 11.7371 12.035 11.1243 12.035 10.3685C12.035 9.61272 11.3378 9 10.4778 9C9.61778 9 8.92057 9.61272 8.92057 10.3685C8.92057 11.1243 9.61778 11.7371 10.4778 11.7371ZM8.55923 12.9402C8.86809 12.9402 9.11845 12.7202 9.11845 12.4487C9.11845 12.1773 8.86809 11.9573 8.55923 11.9573C8.25036 11.9573 8 12.1773 8 12.4487C8 12.7202 8.25036 12.9402 8.55923 12.9402ZM14.429 13.8532C13.5966 14.5148 12.505 14.6187 11.7888 14.5979C12.283 14.8889 12.8727 15.0284 13.4664 14.9952C14.0601 14.9619 14.6248 14.7576 15.073 14.4139C15.5213 14.0702 15.8282 13.6062 15.9462 13.0938C16.0643 12.5814 15.9868 12.0491 15.7259 11.5792C15.5893 12.2295 15.2538 13.1926 14.429 13.8532Z" fill="#798FCB"/>
    <path d="M23.9943 11.0179C23.7969 9.34289 18.2672 7.59255 11.6428 7.11985C5.01843 6.64716 -0.190924 7.61424 0.00537014 9.28923C0.106753 10.1478 1.32874 11.0133 3.62388 11.7269C3.66486 11.6127 3.7134 11.4986 3.76301 11.3958V11.381C3.7835 11.3273 3.80399 11.2759 3.82556 11.2234L3.83204 11.2074C3.84174 11.1429 3.86299 11.0809 3.89459 11.0247C2.50435 10.5749 1.71594 10.1113 1.67172 9.64889C1.56386 8.56306 6.05707 8.08009 11.7022 8.56991C17.3472 9.05973 22.0022 10.3362 22.1068 11.4243C22.15 11.8708 21.5438 12.1916 20.2733 12.4086C20.2604 12.6095 20.255 12.8105 20.2431 13C22.7044 12.6244 24.1011 11.9313 23.9943 11.0179V11.0179Z" fill="url(#paint0_linear_93_326)"/>
    <g opacity="0.5">
        <path opacity="0.5" d="M22.0791 10.6435C21.4346 9.48308 17.0439 8.22266 11.8682 7.75572C6.76271 7.2941 2.70172 7.76849 2.3252 8.81937C3.36969 8.12374 7.24985 7.86209 11.9384 8.24925C17.0364 8.6662 21.3154 9.69581 22.0791 10.6435ZM4.49715 10.6201C4.49662 10.6163 4.49662 10.6123 4.49715 10.6084L4.30889 10.552L4.49715 10.6201ZM22.0345 11.2732C21.7803 11.5029 21.2357 11.6838 20.3911 11.8188C20.3911 11.8795 20.3848 11.9401 20.3816 11.9997C21.2282 11.8231 21.7973 11.5774 22.0345 11.2732Z" fill="white"/>
    </g>
    <path d="M19.999 12.0301C20.0047 12.3147 19.9864 12.5994 19.9445 12.8818C19.8797 13.2117 19.7387 12.7464 19.7387 12.7464L19.999 12.0301ZM4.23365 11.0206C4.14179 11.2111 4.06876 11.4082 4.01558 11.6096C3.91271 11.9835 4.35298 11.7809 4.35298 11.7809L4.62043 11L4.23365 11.0206V11.0206Z" fill="#06007B"/>
    <defs>
        <linearGradient id="paint0_linear_93_326" x1="0.35417" y1="11.8959" x2="23.6993" y2="8.78885" gradientUnits="userSpaceOnUse">
            <stop stop-color="#FFCC00"/>
            <stop offset="1" stop-color="#FE8D13"/>
        </linearGradient>
    </defs>
</svg>
