<svg viewBox="0 0 24 24" fill="none" xmlns="http://www.w3.org/2000/svg">
    <path fill-rule="evenodd" clip-rule="evenodd" d="M4.31546 3.75C3.93691 1.8 5.4511 0 7.41956 0C9.16088 0 10.5994 1.425 10.5994 3.15V7.05C11.0536 7.05 11.5079 6.975 11.9621 6.975C12.4164 6.975 12.795 6.975 13.2492 7.05V3.15C13.2492 1.425 14.6877 0 16.429 0C18.3975 0 19.9117 1.8 19.6088 3.75L18.776 8.325C21.7287 9.6 24 11.85 24 14.625V16.35C24 18.675 22.4858 20.625 20.2902 21.9C18.0946 23.25 15.2177 24 11.9621 24C8.70662 24 5.82965 23.25 3.63407 21.9C1.5142 20.625 0 18.675 0 16.35V14.625C0 11.85 2.19558 9.6 5.14826 8.325L4.31546 3.75ZM17.6404 8.925L18.6246 3.525C18.8517 2.175 17.8675 0.9 16.429 0.9C15.2177 0.9 14.2334 1.875 14.2334 3.075V8.025C13.9306 7.95 13.5521 7.95 13.2492 7.95C12.795 7.95 12.4164 7.875 11.9621 7.875C11.5079 7.875 11.0536 7.875 10.5994 7.95C10.2965 7.95 9.91798 8.025 9.61514 8.025V3.15C9.61514 1.95 8.63091 0.975 7.41956 0.975C6.05678 0.975 4.99685 2.25 5.29968 3.6L6.28391 9C3.1041 10.2 0.984227 12.3 0.984227 14.7V16.425C0.984227 20.1 5.90536 23.1 11.9621 23.1C18.0189 23.1 22.9401 20.1 22.9401 16.425V14.7C23.0158 12.225 20.8959 10.125 17.6404 8.925Z" fill="#633001"/>
    <path d="M23.0158 16.35C23.0158 20.025 18.0946 23.025 12.0379 23.025C5.98107 23.025 1.05994 20.025 1.05994 16.35V14.625H23.0915V16.35H23.0158Z" fill="#FEDC90"/>
    <path fill-rule="evenodd" clip-rule="evenodd" d="M5.29968 3.60001C4.99685 2.25001 6.05678 0.975006 7.41956 0.975006C8.63091 0.975006 9.61514 1.95001 9.61514 3.15001V8.10001C10.3722 8.02501 11.1293 7.95001 11.9621 7.95001C12.7192 7.95001 13.4763 8.02501 14.2334 8.10001V3.15001C14.2334 1.95001 15.2177 0.975006 16.429 0.975006C17.7918 0.975006 18.8517 2.25001 18.6246 3.60001L17.6404 9.00001C20.8202 10.2 23.0158 12.3 23.0158 14.7C23.0158 18.375 18.0946 21.375 12.0379 21.375C5.98107 21.375 1.05994 18.375 1.05994 14.7C1.05994 12.3 3.17981 10.2 6.35962 9.00001L5.29968 3.60001Z" fill="#D1884F"/>
    <path d="M8.9337 14.175C8.9337 15.15 8.40373 15.975 7.72234 15.975C7.04095 15.975 6.51099 15.15 6.51099 14.175C6.51099 13.2 7.04095 12.375 7.72234 12.375C8.40373 12.375 8.9337 13.2 8.9337 14.175Z" fill="#633001"/>
    <path d="M17.3375 14.175C17.3375 15.15 16.8075 15.975 16.1262 15.975C15.4448 15.975 14.9148 15.15 14.9148 14.175C14.9148 13.2 15.4448 12.375 16.1262 12.375C16.8075 12.375 17.3375 13.2 17.3375 14.175Z" fill="#633001"/>
</svg>
